<svg width="411" height="640" viewBox="0 0 411 640" fill="none" xmlns="http://www.w3.org/2000/svg">
<g clip-path="url(#clip0_2098_4760)">
<rect width="411" height="640" fill="white"/>
<rect width="1857" height="1045" transform="translate(-694 -191.089)" fill="white"/>
<path d="M234.5 0.208496C331.764 0.208768 410.612 81.5602 410.612 181.912C410.612 231.345 391.477 276.167 360.435 308.926C383.743 277.037 397.628 236.961 397.628 193.432C397.628 89.449 318.415 5.15381 220.7 5.15381C202.181 5.15381 184.327 8.18363 167.551 13.7993C188.191 5.04024 210.799 0.208496 234.5 0.208496Z" fill="#F3F3F3"/>
<path d="M269.37 221.871C267.443 225.243 269.37 231.024 266.961 232.469C264.552 233.914 256.362 232.469 256.362 232.469V238.732L259.735 235.841C259.735 235.841 258.289 248.849 262.625 251.257C266.961 253.666 305.019 235.841 306.946 232.469C308.873 229.097 306.464 218.499 308.873 218.499C311.282 218.499 311.764 231.988 314.654 231.024C317.545 230.061 318.99 222.834 319.472 218.499C319.953 214.163 317.063 192.966 316.581 187.185C316.099 181.404 307.91 168.396 294.421 169.842C280.932 171.287 276.596 185.258 276.596 190.557C276.596 195.856 280.45 206.455 279.005 209.827C277.559 213.199 271.297 218.499 269.37 221.871Z" fill="#F3F3F3"/>
<path d="M266.962 200.674C268.407 204.528 272.743 208.863 271.779 211.754C270.816 214.644 250.582 211.754 250.582 200.674C250.582 189.593 270.334 166.951 271.779 168.396C273.224 169.842 265.516 196.82 266.962 200.674Z" fill="#F3F3F3"/>
<path d="M74.3895 101.915C73.9069 97.5789 71.9766 54.2214 71.9766 54.2214C71.9766 54.2214 35.2996 101.433 32.404 140.936C29.5085 180.44 36.7474 198.746 35.2996 205.491C33.8518 212.235 5.86137 259.929 0.552892 268.6C-4.75559 277.272 25.6477 297.023 25.6477 299.432C25.6477 301.841 21.3043 317.739 21.7869 320.629C22.2696 323.52 32.404 334.6 32.404 334.6C32.404 334.6 27.578 340.381 27.5781 347.607C27.5781 354.833 42.0559 368.804 42.0559 368.804C42.0559 368.804 39.1604 386.629 50.7425 400.118C62.3247 413.607 110.102 405.899 125.544 407.344C140.987 408.79 164.634 441.067 179.112 457.446C193.59 473.826 192.142 507.067 189.247 522.964C186.351 538.862 168.012 562.95 161.739 570.658C155.465 578.366 96.5889 636.176 99.967 639.548C103.345 642.92 189.247 578.366 189.247 578.366C189.247 578.366 239.436 570.176 227.371 479.607C215.307 389.038 200.346 379.884 195.038 376.031C189.729 372.177 125.544 352.425 125.544 352.425C125.544 352.425 120.236 327.855 115.41 325.447C110.584 323.038 109.136 316.293 106.241 309.067C103.345 301.842 103.345 279.204 103.345 275.346V275.345C103.345 271.491 78.733 237.768 79.6981 234.396C80.6632 231.024 129.405 199.71 130.853 190.557C132.301 181.403 64.2552 131.301 63.7726 126.002C63.2899 120.703 74.8722 106.25 74.3895 101.915Z" fill="#F3F3F3"/>
<path d="M247.689 282.571C236.609 274.2 243.354 246.44 241.427 245.476C239.5 244.513 186.507 337.009 193.733 342.308C200.96 347.607 271.777 284.016 269.368 282.571C266.959 281.126 258.77 290.942 247.689 282.571Z" fill="#F3F3F3"/>
</g>
<defs>
<clipPath id="clip0_2098_4760">
<rect width="411" height="640" fill="white"/>
</clipPath>
</defs>
</svg>
